<?xml version="1.0" encoding="UTF-8" standalone="no"?>
<!DOCTYPE svg PUBLIC "-//W3C//DTD SVG 1.1//EN" "http://www.w3.org/Graphics/SVG/1.1/DTD/svg11.dtd">
<svg width="24" height="24" viewBox="0 0 24 24" version="1.1" xmlns="http://www.w3.org/2000/svg" xmlns:xlink="http://www.w3.org/1999/xlink" xml:space="preserve" xmlns:serif="http://www.serif.com/" style="fill-rule:evenodd;clip-rule:evenodd;stroke-linejoin:round;stroke-miterlimit:1.41421;">
    <path d="M17.65,6.35C16.2,4.9 14.21,4 12,4C7.58,4 4.01,7.58 4.01,12C4.01,16.42 7.58,20 12,20C15.73,20 18.84,17.45 19.73,14L17.65,14C16.83,16.33 14.61,18 12,18C8.69,18 6,15.31 6,12C6,8.69 8.69,6 12,6C13.66,6 15.14,6.69 16.22,7.78L13,11L20,11L20,4L17.65,6.35Z" style="fill:rgb(180,123,68);fill-rule:nonzero;"/>
    <rect x="0" y="0" width="24" height="24" style="fill:none;"/>
</svg>
