<?xml version="1.0" encoding="UTF-8" standalone="no"?>
<!DOCTYPE svg PUBLIC "-//W3C//DTD SVG 1.1//EN" "http://www.w3.org/Graphics/SVG/1.1/DTD/svg11.dtd">
<svg width="24" height="24" viewBox="0 0 24 24" version="1.1" xmlns="http://www.w3.org/2000/svg" xmlns:xlink="http://www.w3.org/1999/xlink" xml:space="preserve" xmlns:serif="http://www.serif.com/" style="fill-rule:evenodd;clip-rule:evenodd;stroke-linejoin:round;stroke-miterlimit:1.41421;">
    <rect x="0" y="0" width="24" height="24" style="fill:none;"/>
    <path d="M3,5L5,5L5,3C3.9,3 3,3.9 3,5ZM3,13L5,13L5,11L3,11L3,13ZM7,21L9,21L9,19L7,19L7,21ZM3,9L5,9L5,7L3,7L3,9ZM13,3L11,3L11,5L13,5L13,3ZM19,3L19,5L21,5C21,3.9 20.1,3 19,3ZM5,21L5,19L3,19C3,20.1 3.9,21 5,21ZM3,17L5,17L5,15L3,15L3,17ZM9,3L7,3L7,5L9,5L9,3ZM11,21L13,21L13,19L11,19L11,21ZM19,13L21,13L21,11L19,11L19,13ZM19,21C20.1,21 21,20.1 21,19L19,19L19,21ZM19,9L21,9L21,7L19,7L19,9ZM19,17L21,17L21,15L19,15L19,17ZM15,21L17,21L17,19L15,19L15,21ZM15,5L17,5L17,3L15,3L15,5ZM7,17L17,17L17,7L7,7L7,17ZM9,9L15,9L15,15L9,15L9,9Z" style="fill:rgb(180,123,68);fill-rule:nonzero;"/>
</svg>
